<?xml version="1.0" standalone="no"?>
<!DOCTYPE svg PUBLIC "-//W3C//DTD SVG 20010904//EN"
 "http://www.w3.org/TR/2001/REC-SVG-20010904/DTD/svg10.dtd">
<svg version="1.0" xmlns="http://www.w3.org/2000/svg"
 width="1168.000000pt" height="1168.000000pt" viewBox="0 0 1168.000000 1168.000000"
 preserveAspectRatio="xMidYMid meet">
<metadata>
Created by potrace 1.14, written by Peter Selinger 2001-2017
</metadata>
<g transform="translate(0.000000,1168.000000) scale(0.100000,-0.100000)"
fill="#000000" stroke="none">
<path d="M2010 11670 c-19 -5 -48 -11 -65 -15 -48 -10 -141 -64 -188 -109 -43
-41 -116 -141 -121 -167 -2 -8 -6 -21 -9 -29 -3 -8 -11 -33 -16 -55 -8 -28
-10 -1703 -8 -5475 l2 -5435 21 -57 c27 -70 74 -140 131 -194 45 -43 139 -99
183 -108 96 -22 125 -24 210 -22 183 7 317 79 408 220 15 23 29 43 32 46 3 3
6 10 7 15 1 6 9 29 17 51 8 23 18 68 21 100 4 32 9 62 11 66 3 5 1 8 -5 8 -6
0 -8 9 -3 23 9 25 8 74 -1 83 -4 4 -2 15 3 25 7 12 7 20 0 24 -6 4 -8 10 -5
15 8 13 9 159 2 167 -4 3 -2 12 4 19 7 8 7 14 -1 19 -6 4 -7 12 -1 24 5 9 6
23 1 30 -4 8 -4 27 0 42 5 18 5 29 -1 29 -6 0 -7 6 0 17 5 10 5 26 0 40 -4 12
-5 25 0 27 6 4 7 39 1 56 -1 3 -1 20 0 39 5 93 4 151 -2 151 -4 0 -3 11 2 25
5 13 5 27 1 29 -5 3 -5 23 -1 45 4 22 4 45 -1 52 -4 7 -3 21 2 30 5 10 5 20 1
23 -5 3 -6 28 -2 56 4 28 3 53 -2 56 -4 3 -4 14 2 24 6 10 6 21 2 24 -5 3 -6
26 -2 50 4 25 3 51 -1 58 -4 6 -3 20 2 29 5 10 5 20 1 23 -5 3 -6 28 -2 56 4
28 3 53 -2 56 -4 3 -4 14 2 24 6 10 6 21 2 24 -5 3 -6 26 -2 50 4 25 3 51 -1
58 -4 6 -3 20 2 29 5 10 5 20 1 23 -5 3 -6 28 -2 56 4 28 3 53 -2 56 -4 3 -4
14 2 24 6 10 6 21 2 24 -5 3 -6 26 -2 50 4 25 3 51 -1 58 -4 6 -3 20 2 29 5
10 5 20 1 23 -5 3 -6 28 -2 56 4 28 3 53 -2 56 -4 3 -4 14 2 24 6 10 6 21 2
24 -5 3 -6 26 -2 50 4 25 3 51 -1 58 -4 6 -3 20 2 29 5 10 5 20 1 23 -5 3 -6
28 -2 56 4 28 3 53 -2 56 -4 3 -4 14 2 24 6 10 6 21 2 24 -5 3 -6 26 -2 50 4
25 3 51 -1 58 -4 6 -3 20 2 29 5 10 5 20 1 23 -5 3 -6 28 -2 56 4 28 3 53 -2
56 -4 3 -4 14 2 24 6 10 6 21 2 24 -5 3 -6 26 -2 50 4 25 3 51 -1 58 -4 6 -3
20 2 29 5 10 5 20 1 23 -5 3 -6 28 -2 56 4 28 3 53 -2 56 -4 3 -4 14 2 24 6
10 6 21 2 24 -5 3 -6 26 -2 50 4 25 3 51 -1 58 -4 6 -3 20 2 29 5 10 5 20 1
23 -5 3 -6 28 -2 56 4 28 3 53 -2 56 -4 3 -4 14 2 24 6 10 6 21 1 24 -4 3 -5
24 -1 46 4 22 4 40 -1 40 -5 0 -5 10 -1 23 9 25 8 74 -1 83 -4 4 -2 15 3 25 7
12 7 20 0 24 -6 4 -8 10 -5 15 8 13 9 159 2 167 -4 3 -2 12 4 19 7 8 7 14 -1
19 -6 4 -7 12 -1 24 5 9 6 23 1 30 -4 8 -4 27 0 42 5 18 5 29 -1 29 -6 0 -7 6
0 17 5 10 5 26 0 40 -4 12 -5 25 0 27 7 4 7 40 1 56 -1 3 -2 9 -1 13 5 27 3
168 -2 173 -3 3 -2 17 3 30 5 13 6 24 1 24 -5 0 -5 18 -1 40 4 22 4 40 -1 40
-5 0 -5 10 -1 23 4 12 6 36 5 52 -2 17 -3 36 -3 43 0 6 0 18 0 25 0 6 -1 26
-3 42 -1 17 1 38 5 47 5 9 4 19 -2 23 -5 3 -7 11 -5 18 3 7 7 37 9 68 2 31 9
66 15 78 13 23 54 53 80 59 9 1 1373 3 3031 4 3340 1 3069 6 3106 -64 17 -31
18 -156 20 -2498 1 -1356 4 -2483 7 -2504 26 -165 150 -310 322 -377 48 -18
93 -24 195 -24 154 1 232 25 330 104 55 44 70 58 70 66 0 3 5 11 10 18 42 49
52 66 71 116 11 31 24 79 28 106 5 37 6 10749 1 10859 -1 11 -15 55 -32 99
-26 68 -42 91 -102 152 -112 114 -204 150 -376 149 -58 0 -116 -3 -130 -6 -80
-21 -160 -54 -172 -72 -4 -6 -8 -7 -8 -3 0 9 -103 -93 -132 -131 -10 -12 -25
-39 -34 -59 -50 -111 -47 19 -49 -2463 -1 -2121 -2 -2328 -17 -2355 -20 -38
-56 -70 -88 -81 -14 -4 -1377 -8 -3030 -8 -2920 -1 -3006 0 -3043 18 -55 27
-74 72 -75 174 0 46 -2 85 -5 89 -3 3 -2 16 3 29 5 13 6 24 1 24 -5 0 -5 18
-1 40 4 22 4 40 -1 40 -5 0 -5 10 -1 23 9 25 8 74 -1 83 -4 4 -2 15 3 25 7 12
7 20 0 24 -6 4 -8 10 -5 15 8 13 9 159 2 167 -4 3 -2 12 4 19 7 8 7 14 -1 19
-6 4 -7 12 -1 24 5 9 6 23 1 30 -4 8 -4 27 0 42 5 18 5 29 -1 29 -6 0 -7 6 0
17 5 10 5 26 0 40 -4 12 -5 25 0 27 7 4 7 40 1 56 -1 3 -2 9 -1 13 5 27 3 168
-2 173 -3 3 -2 17 3 30 5 13 6 24 1 24 -5 0 -5 18 -1 40 4 22 4 40 -1 40 -5 0
-5 10 -1 23 9 25 8 74 -1 83 -4 4 -2 15 3 25 7 12 7 20 0 24 -6 4 -8 10 -5 15
8 13 9 159 2 167 -4 3 -2 12 4 19 7 8 7 14 -1 19 -6 4 -7 12 -1 24 5 9 6 23 1
30 -4 8 -4 27 0 42 5 18 5 29 -1 29 -6 0 -7 6 0 17 5 10 5 26 0 40 -4 12 -5
25 0 27 7 4 7 40 1 56 -1 3 -2 9 -1 13 5 27 3 168 -2 173 -3 3 -2 17 3 30 5
13 6 24 1 24 -5 0 -5 18 -1 40 4 22 4 40 -1 40 -5 0 -5 10 -1 23 9 25 8 74 -1
83 -4 4 -2 15 3 25 7 12 7 20 0 24 -6 4 -8 10 -5 15 8 13 9 169 2 176 -3 4 -2
15 3 25 6 10 6 20 2 23 -5 3 -6 28 -2 56 4 28 3 53 -2 56 -4 3 -4 14 2 24 6
10 6 21 2 24 -5 3 -6 26 -2 50 4 25 3 51 -1 58 -4 6 -3 20 2 29 5 10 5 20 1
23 -5 3 -6 28 -2 56 4 28 3 53 -2 56 -4 3 -4 14 2 24 6 10 6 21 2 24 -5 3 -6
26 -2 50 4 25 3 51 -1 58 -4 6 -3 20 2 29 5 10 5 20 1 23 -5 3 -6 28 -2 56 4
28 3 53 -2 56 -4 3 -4 14 2 24 6 10 6 21 2 24 -5 3 -6 26 -2 50 4 25 3 51 -1
58 -4 6 -3 20 2 29 5 10 5 20 1 23 -5 3 -6 28 -2 56 4 28 3 53 -2 56 -4 3 -4
14 2 24 6 10 6 21 2 24 -5 3 -6 26 -2 50 4 25 3 51 -1 58 -4 6 -3 20 2 29 5
10 5 20 1 23 -5 3 -6 28 -2 56 4 28 3 53 -2 56 -4 3 -4 14 2 24 6 10 6 21 2
24 -5 3 -6 26 -2 50 4 25 3 51 -1 58 -4 6 -3 20 2 29 5 10 5 20 1 23 -5 3 -6
28 -2 56 4 28 3 53 -2 56 -4 3 -4 14 2 24 7 13 7 21 0 25 -6 4 -8 10 -6 14 6
9 8 74 4 124 -2 20 0 37 5 37 4 0 3 8 -2 18 -7 13 -6 23 1 30 9 9 9 12 -1 12
-7 0 -10 4 -7 8 3 5 -1 38 -9 73 -35 167 -176 315 -345 361 -46 12 -226 18
-270 8z"/>
</g>
</svg>
