<svg width="53" height="73" viewBox="0 0 53 73" fill="none" xmlns="http://www.w3.org/2000/svg">
<path d="M48.9 73C47.9 73 47.1 72.7 46.5 72.1C45.9 71.5 45.6 70.7667 45.6 69.9V39.8C45.6 39.1333 45.3 38.8 44.7 38.8H7.4C6.8 38.8 6.5 39.1333 6.5 39.8V69.9C6.5 70.7667 6.2 71.5 5.6 72.1C5 72.7 4.23333 73 3.3 73C2.3 73 1.5 72.7 0.9 72.1C0.3 71.5 7.45058e-08 70.7667 7.45058e-08 69.9V3.09999C7.45058e-08 2.23333 0.3 1.5 0.9 0.899998C1.5 0.299998 2.3 -1.90735e-06 3.3 -1.90735e-06C4.23333 -1.90735e-06 5 0.299998 5.6 0.899998C6.2 1.5 6.5 2.23333 6.5 3.09999V31.4C6.5 31.6667 6.56667 31.9 6.7 32.1C6.9 32.3 7.13333 32.4 7.4 32.4H44.7C44.9667 32.4 45.1667 32.3 45.3 32.1C45.5 31.9 45.6 31.6667 45.6 31.4V3.09999C45.6 2.23333 45.9 1.5 46.5 0.899998C47.1 0.299998 47.9 -1.90735e-06 48.9 -1.90735e-06C49.8333 -1.90735e-06 50.6 0.299998 51.2 0.899998C51.8 1.5 52.1 2.23333 52.1 3.09999V69.9C52.1 70.7667 51.8 71.5 51.2 72.1C50.6 72.7 49.8333 73 48.9 73Z" fill="white"/>
</svg>
